<?xml version="1.0" encoding="utf-8"?>
<!-- Svg Vector Icons : http://www.onlinewebfonts.com/icon -->
<!DOCTYPE svg PUBLIC "-//W3C//DTD SVG 1.1//EN" "http://www.w3.org/Graphics/SVG/1.1/DTD/svg11.dtd">
<svg version="1.1" xmlns="http://www.w3.org/2000/svg" xmlns:xlink="http://www.w3.org/1999/xlink" x="0px" y="0px" viewBox="0 0 1000 1000" enable-background="new 0 0 1000 1000" xml:space="preserve">
<style type="text/css">
	.st1{fill:#FFFFFF;}
</style>
<metadata> Svg Vector Icons : http://www.onlinewebfonts.com/icon </metadata>
<g><g class="st1" transform="translate(0.000000,512.000000) scale(0.100000,-0.100000)"><path class="st1" d="M1921.2,5000.3c-235.4-45.9-514.8-254.5-631.6-474.6c-118.7-222-116.7-208.6-116.7-1628.7V1605.2l-78.5-57.4c-44-30.6-156.9-139.7-254.5-239.2C462.9,914.3,233.2,455,139.5-98.1c-47.8-279.4-53.6-859.3-9.6-1138.7C260-2092.4,949-2781.3,1804.5-2911.5c271.8-42.1,6120.4-42.1,6392.2,0c780.8,118.7,1435.4,715.8,1640.2,1492.8c40.2,158.8,49.8,233.5,49.8,440.2c0,474.6-137.8,822.9-503.3,1274.6l-40.2,47.8l42.1,201c55.5,260.3,61.2,690.9,11.5,941.6c-195.2,979.9-979.9,1764.6-1959.8,1959.8c-227.7,44-664.1,44-891.8,0c-467-93.8-886.1-313.9-1236.3-654.5c-378.9-367.5-616.3-794.2-717.7-1288c-15.3-78.5-30.6-143.5-34.4-147.4c-3.8-3.8-63.2,40.2-130.1,99.5c-248.8,212.4-558.8,392.3-861.2,499.5c-139.7,47.8-233.5,72.7-511,130.1l-44,7.7v1031.6c0,620.1-7.7,1071.7-19.1,1133c-51.7,267.9-258.4,537.8-507.2,658.4C2286.8,5013.7,2118.4,5038.6,1921.2,5000.3z M2369.1,4657.7c118.7-57.4,218.2-156.9,277.5-277.5l47.8-95.7l9.6-2021l9.6-2022.9l126.3-122.5c426.8-424.9,430.6-1096.6,9.6-1519.6c-595.2-595.2-1628.7-294.7-1800.9,522.5c-80.4,375.1,24.9,723.4,298.5,1000.9L1479.2,254v1977c0,1360.7,5.7,2000,21,2053.5c49.8,179.9,206.7,344.5,388.5,403.8C2011.2,4728.5,2254.3,4713.2,2369.1,4657.7z M7469.4,3136.2c803.8-178,1450.7-826.8,1617.2-1626.8c44-210.5,57.4-558.8,28.7-761.7c-13.4-91.9-24.9-166.5-26.8-166.5c-1.9,0-95.7,45.9-206.7,101.4c-308.1,156.9-461.2,195.2-809.5,193.3c-392.3,0-650.7-68.9-956.9-256.5c-72.7-42.1-132.1-74.6-134-72.7c-1.9,3.8-34.4,57.4-72.7,120.6c-168.4,279.4-423,511-731.1,660.3c-241.2,116.7-384.7,153.1-650.7,166.5c-166.5,7.7-248.8,1.9-392.3-28.7c-99.5-21.1-197.1-44-214.3-51.7c-47.8-19.1-44,26.8,15.3,231.6c227.8,792.3,868.9,1368.4,1676.5,1510C6813,3189.8,7268.5,3180.3,7469.4,3136.2z M3293.5,1727.7c386.6-97.6,690.9-271.8,1018.2-585.6c166.5-160.8,237.3-216.3,273.7-216.3c26.8,0,99.5,30.6,160.8,67c311.9,185.6,702.4,245,1052.6,160.8c143.5-34.4,396.2-158.8,520.6-256.5c181.8-143.5,346.4-377,445.9-633.5c34.4-93.8,109.1-151.2,174.2-134c23,5.7,103.4,57.4,176.1,116.7c415.3,333,966.5,421,1471.7,237.3C8931.6,357.4,9255,74.1,9412-241.7c434.4-868.9,28.7-1929.1-870.8-2275.5c-312-120.6-178-116.8-3550.2-116.8c-2719.6,0-3085.1,3.8-3226.7,30.6c-685.1,130.2-1200,648.8-1328.2,1337.8C394-1041.7,405.5-234,453.3-21.6c101.4,440.2,290.9,800,574.1,1094.7l143.5,149.3l1.9-419.1V386.1l-99.5-111C727-100,619.8-658.9,803.6-1122c210.5-532,733-897.6,1284.2-899.5c388.5,0,790.4,193.3,1062.2,512.9c120.6,141.6,254.5,415.3,292.8,597.1c86.1,409.6-44,872.7-331.1,1186.6l-101.4,111v700.5v702.4l72.7-13.4C3121.2,1767.9,3216.9,1746.8,3293.5,1727.7z"/><path class="st1" d="M1999.7,3017.6c-65.1-13.4-187.6-143.5-201-216.3c-7.7-34.4-13.4-666-13.4-1404.7V55L1699.2,9c-254.5-135.9-411.5-478.5-356-778.9c30.6-164.6,97.6-296.7,212.4-409.6c296.6-298.6,775.1-298.6,1071.7,0C2862.8-946,2918.4-590,2767.2-293.4c-55.5,112.9-222,281.3-310,317.7l-59.3,24.9v1362.7v1362.7l-42.1,84.2C2288.7,2988.9,2156.6,3048.2,1999.7,3017.6z"/><path class="st1" d="M6991,4102.7v-459.3h153.1h153.1v459.3V4562h-153.1H6991V4102.7z"/><path d="M8472.3,3729.5c-250.7-334.9-243.1-289-68.9-413.4c70.8-49.8,88-55.5,109.1-34.4c49.8,55.5,434.4,576.1,426.8,581.8c-32.5,30.6-218.2,162.7-229.7,162.7C8702,4026.2,8594.8,3892.2,8472.3,3729.5z"/><path d="M5297.2,3945.8c-63.2-32.5-116.7-61.2-120.6-63.1c-5.8-5.7,279.4-583.7,294.7-600.9c7.7-9.6,275.6,114.8,275.6,126.3c0,28.7-300.5,599-315.8,599C5421.6,4005.1,5360.4,3978.3,5297.2,3945.8z"/><path d="M9373.7,2864.5c-156.9-78.5-290.9-147.4-294.7-151.2c-9.6-7.7,114.8-275.6,126.3-275.6c9.6,0,587.5,289,597.1,298.6c11.5,9.6-116.8,275.6-130.2,273.7C9666.5,3009.9,9532.5,2944.9,9373.7,2864.5z"/><path d="M4095.4,2897c-40.2-53.6-76.6-109.1-82.3-122.5c-5.7-15.3,99.5-107.2,289-250.7c164.6-122.5,302.4-220.1,304.3-216.3c72.7,91.9,164.6,222,164.6,231.6c0,13.4-579.9,453.6-595.2,453.6C4170,2992.7,4133.6,2948.7,4095.4,2897z"/><path d="M713.6-3441.6v-195.2L573.9-3499l-137.8,137.8l-111-109.1l-109.1-111l137.8-137.8l137.8-139.7H296.4H101.2v-153.1V-4165h195.2h195.2l-137.8-139.7L216-4442.5l109.1-111l111-109.1l137.8,137.8L713.6-4387v-195.2v-195.2h153.1h153.1v195.2v195.2l139.7-137.8l137.8-137.8l111,109.1l109.1,111l-137.8,137.8L1241.8-4165H1437h195.2v153.1v153.1H1437h-195.2l137.8,139.7l137.8,137.8l-109.1,111l-111,109.1L1159.5-3499l-139.7-137.8v195.2v195.2H866.7H713.6V-3441.6z"/><path d="M2550.9-3441.6v-195.2L2411.2-3499l-137.8,137.8l-111-109.1l-109.1-111l137.8-137.8l137.8-139.7h-195.2h-195.2v-153.1V-4165h195.2h195.2l-137.8-139.7l-137.8-137.8l109.1-111l111-109.1l137.8,137.8l139.7,137.8v-195.2v-195.2H2704h153.1v195.2v195.2l139.7-137.8l137.8-137.8l111,109.1l109.1,111l-137.8,137.8L3079.1-4165h195.2h195.2v153.1v153.1h-195.2h-195.2l137.8,139.7l137.8,137.8l-109.1,111l-111,109.1L2996.8-3499l-139.7-137.8v195.2v195.2H2704h-153.1V-3441.6z"/><path d="M4388.2-3441.6v-195.2L4248.5-3499l-137.8,137.8l-111-109.1l-109.1-111l137.8-137.8l137.8-139.7H3971h-195.2v-153.1V-4165H3971h195.2l-137.8-139.7l-137.8-137.8l109.1-111l111-109.1l137.8,137.8l139.7,137.8v-195.2v-195.2h153.1h153.1v195.2v195.2l139.7-137.8l137.8-137.8l111,109.1l109.1,111l-137.8,137.8L4916.4-4165h195.2h195.2v153.1v153.1h-195.2h-195.2l137.8,139.7l137.8,137.8l-109.1,111l-111,109.1L4834.1-3499l-139.7-137.8v195.2v195.2h-153.1h-153.1V-3441.6z"/><path d="M6225.4-3399.5v-153.1h153.1h153.1v153.1v153.1h-153.1h-153.1V-3399.5z"/><path d="M6837.9-3399.5v-153.1H6991h153.1v153.1v153.1H6991h-153.1V-3399.5z"/><path d="M7450.3-3399.5v-153.1h153.1h153.1v153.1v153.1h-153.1h-153.1V-3399.5z"/><path d="M8062.7-3399.5v-153.1h153.1h153.1v153.1v153.1h-153.1h-153.1V-3399.5z"/><path d="M8675.1-3399.5v-153.1h153.1h153.1v153.1v153.1h-153.1h-153.1V-3399.5z"/><path d="M9287.6-3399.5v-153.1h153.1h153.1v153.1v153.1h-153.1h-153.1V-3399.5z"/><path d="M5919.2-4011.9V-4165h153.1h153.1v153.1v153.1h-153.1h-153.1V-4011.9z"/><path d="M6531.7-4011.9V-4165h153.1h153.1v153.1v153.1h-153.1h-153.1V-4011.9z"/><path d="M7144.1-4011.9V-4165h153.1h153.1v153.1v153.1h-153.1h-153.1V-4011.9z"/><path d="M7756.5-4011.9V-4165h153.1h153.1v153.1v153.1h-153.1h-153.1V-4011.9z"/><path d="M8368.9-4011.9V-4165H8522h153.1v153.1v153.1H8522h-153.1V-4011.9z"/><path d="M8981.4-4011.9V-4165h153.1h153.1v153.1v153.1h-153.1h-153.1V-4011.9z"/><path d="M9593.8-4011.9V-4165h153.1H9900v153.1v153.1h-153.1h-153.1V-4011.9z"/><path d="M5613-4624.3v-153.1h153.1h153.1v153.1v153.1h-153.1H5613V-4624.3z"/><path d="M6225.4-4624.3v-153.1h153.1h153.1v153.1v153.1h-153.1h-153.1V-4624.3z"/><path d="M6837.9-4624.3v-153.1H6991h153.1v153.1v153.1H6991h-153.1V-4624.3z"/><path d="M7450.3-4624.3v-153.1h153.1h153.1v153.1v153.1h-153.1h-153.1V-4624.3z"/><path d="M8062.7-4624.3v-153.1h153.1h153.1v153.1v153.1h-153.1h-153.1V-4624.3z"/><path d="M8675.1-4624.3v-153.1h153.1h153.1v153.1v153.1h-153.1h-153.1V-4624.3z"/><path d="M9287.6-4624.3v-153.1h153.1h153.1v153.1v153.1h-153.1h-153.1V-4624.3z"/></g></g>
</svg>